<?xml version="1.0" encoding="UTF-8" standalone="no"?>
<svg width="150px" height="150px" viewBox="0 0 150 150" version="1.1" xmlns="http://www.w3.org/2000/svg" xmlns:xlink="http://www.w3.org/1999/xlink" xmlns:sketch="http://www.bohemiancoding.com/sketch/ns">
    <!-- Generator: Sketch 3.4.4 (17249) - http://www.bohemiancoding.com/sketch -->
    <title>Oval 121 Copy 2</title>
    <desc>Created with Sketch.</desc>
    <defs></defs>
    <g id="Page-1" stroke="none" stroke-width="1" fill="none" fill-rule="evenodd" sketch:type="MSPage">
        <g id="Project" sketch:type="MSLayerGroup" transform="translate(-915.000000, -256.000000)" fill="#FFFFFF">
            <path d="M990,406 C1031.42136,406 1065,372.421356 1065,331 C1065,289.578644 1031.42136,256 990,256 C948.578644,256 915,289.578644 915,331 C915,372.421356 948.578644,406 990,406 Z M1023.3125,305.25 C1023.3125,301.609863 1020.39014,298.6875 1016.75,298.6875 L1003.625,298.6875 C999.984863,298.6875 997.0625,301.609863 997.0625,305.25 L997.0625,357.75 C997.0625,361.390137 999.984863,364.3125 1003.625,364.3125 L1016.75,364.3125 C1020.39014,364.3125 1023.3125,361.390137 1023.3125,357.75 L1023.3125,305.25 Z M983.9375,305.25 C983.9375,301.609863 981.015137,298.6875 977.375,298.6875 L964.25,298.6875 C960.609863,298.6875 957.6875,301.609863 957.6875,305.25 L957.6875,357.75 C957.6875,361.390137 960.609863,364.3125 964.25,364.3125 L977.375,364.3125 C981.015137,364.3125 983.9375,361.390137 983.9375,357.75 L983.9375,305.25 Z" id="Oval-121-Copy-2" sketch:type="MSShapeGroup"></path>
        </g>
    </g>
</svg>