<?xml version="1.0" encoding="UTF-8" standalone="no"?>
<svg width="150px" height="150px" viewBox="0 0 150 150" version="1.1" xmlns="http://www.w3.org/2000/svg" xmlns:xlink="http://www.w3.org/1999/xlink" xmlns:sketch="http://www.bohemiancoding.com/sketch/ns">
    <!-- Generator: Sketch 3.4.4 (17249) - http://www.bohemiancoding.com/sketch -->
    <title>Oval 121 Copy</title>
    <desc>Created with Sketch.</desc>
    <defs></defs>
    <g id="Page-1" stroke="none" stroke-width="1" fill="none" fill-rule="evenodd" sketch:type="MSPage">
        <g id="Project" sketch:type="MSLayerGroup" transform="translate(-715.000000, -256.000000)" fill="#FFFFFF">
            <path d="M790,406 C831.421356,406 865,372.421356 865,331 C865,289.578644 831.421356,256 790,256 C748.578644,256 715,289.578644 715,331 C715,372.421356 748.578644,406 790,406 Z M818.724121,324.911621 L778.375,298.661621 C776.426758,297.379883 773.709473,297.328613 771.76123,298.354004 C771.145996,298.76416 770.530762,299.328125 770.069336,299.943359 C769.043945,301.173828 768.47998,302.711914 768.47998,304.19873 L768.47998,356.69873 C768.47998,359.159668 769.556641,361.15918 771.76123,362.594727 C773.042969,363.004883 774.119629,363.26123 774.991211,363.26123 C776.426758,363.26123 777.605957,362.902344 778.580078,362.287109 L818.980469,336.037109 C820.97998,334.652832 821.902832,332.858398 821.902832,330.44873 C821.902832,327.987793 820.826172,326.09082 818.621582,324.860352 L818.724121,324.911621 Z" id="Oval-121-Copy" sketch:type="MSShapeGroup"></path>
        </g>
    </g>
</svg>